<svg width="93" height="24" viewBox="0 0 93 24" fill="none" xmlns="http://www.w3.org/2000/svg">
<g clip-path="url(#clip0_208_974)">
<path d="M13.6717 0V3.17078H3.81076V10.1595H11.4994V13.3303H3.81076V23.6952H0V0H13.6717Z" fill="white"/>
<path d="M21.5786 5.40334C22.5879 4.84765 23.7224 4.57139 24.8689 4.60208V8.62548H23.902C22.4068 8.62548 21.2753 9.01127 20.5076 9.78285C19.7398 10.5544 19.3559 11.8956 19.3559 13.8062V23.6952H15.5452V4.91026H19.3559V7.64959C19.8868 6.71179 20.6543 5.93615 21.5786 5.40334Z" fill="white"/>
<path d="M26.5915 9.20416C27.3102 7.80334 28.3945 6.63227 29.7246 5.82018C31.0546 5.00809 32.5789 4.58655 34.129 4.60208C35.4506 4.57108 36.7593 4.87212 37.9398 5.47867C38.9487 5.99792 39.8335 6.73666 40.5318 7.64274V4.90341H44.3761V23.6952H40.515V20.8874C39.8118 21.8222 38.9079 22.58 37.8727 23.1029C36.5931 23.7439 35.1767 24.0483 33.7523 23.9885C32.3279 23.9287 30.9408 23.5065 29.7173 22.7605C28.3841 21.9113 27.3034 20.7073 26.5915 19.2781C25.8039 17.7137 25.4072 15.9754 25.4365 14.2171C25.4034 12.4738 25.8006 10.75 26.5915 9.20416ZM39.7294 10.9162C39.2526 10.0103 38.5405 9.25572 37.6712 8.73505C36.8371 8.23448 35.8859 7.97303 34.9181 7.97831C33.9376 7.97006 32.9733 8.23361 32.1282 8.74081C31.2832 9.24802 30.5891 9.97982 30.1202 10.858C29.5753 11.8886 29.3045 13.0467 29.3345 14.2171C29.3088 15.4024 29.5792 16.5749 30.1202 17.6242C30.5982 18.5536 31.3216 19.3281 32.2086 19.8602C33.0359 20.3584 33.9791 20.6212 34.9399 20.6212C35.9007 20.6212 36.8439 20.3584 37.6712 19.8602C38.5449 19.3376 39.2578 18.5761 39.7294 17.6619C40.2715 16.6191 40.542 15.4519 40.515 14.2719C40.5415 13.1008 40.2708 11.9425 39.7294 10.9094V10.9162Z" fill="white"/>
<path d="M50.49 23.1987C49.4141 22.7216 48.4765 21.9706 47.7671 21.0175C47.1108 20.1254 46.7372 19.0503 46.696 17.9358H50.6411C50.6754 18.331 50.7934 18.7138 50.987 19.0579C51.1806 19.402 51.4452 19.6991 51.7625 19.9287C52.5011 20.4823 53.4016 20.7647 54.3176 20.7299C55.3875 20.7299 56.2179 20.5199 56.8088 20.0999C57.0785 19.9305 57.3014 19.6939 57.4565 19.4123C57.6116 19.1307 57.6937 18.8135 57.6952 18.4905C57.7024 18.1586 57.6124 17.832 57.4365 17.5526C57.2607 17.2732 57.007 17.0537 56.7081 16.9222C55.7011 16.4535 54.655 16.0776 53.5823 15.7991C52.437 15.4908 51.3103 15.1146 50.208 14.6726C49.3359 14.3072 48.5623 13.7342 47.9518 13.0016C47.2866 12.1617 46.9494 11.1007 47.0049 10.0225C47.0005 9.03815 47.3053 8.07818 47.8745 7.28321C48.5095 6.40591 49.3708 5.72552 50.3624 5.31773C51.5435 4.82114 52.812 4.57754 54.0893 4.60208C56.1843 4.60208 57.872 5.14196 59.1524 6.22171C60.4327 7.30147 61.1176 8.77272 61.2072 10.6355H57.393C57.3737 10.2469 57.274 9.86693 57.1004 9.5205C56.9268 9.17407 56.6833 8.86905 56.3858 8.62548C55.6846 8.09431 54.8238 7.82912 53.9516 7.87559C52.9466 7.87559 52.1777 8.06848 51.645 8.45427C51.395 8.61989 51.1902 8.84748 51.0498 9.11577C50.9095 9.38405 50.8382 9.68426 50.8426 9.9883C50.8374 10.225 50.8818 10.4601 50.9727 10.678C51.0636 10.8958 51.1989 11.0914 51.3697 11.2518C51.7486 11.6047 52.1926 11.8771 52.6758 12.0531C53.1861 12.2448 53.9438 12.4891 54.9488 12.7858C56.0695 13.0759 57.1689 13.4455 58.2391 13.8919C59.0934 14.2642 59.8534 14.8297 60.4618 15.5457C61.1195 16.3597 61.4675 17.3882 61.4422 18.4426C61.456 19.4675 61.1516 20.4707 60.5726 21.3086C59.9482 22.1862 59.0974 22.8701 58.1149 23.2843C55.6589 24.2673 52.9242 24.2365 50.49 23.1987Z" fill="white"/>
<path d="M80.627 15.7512H66.5524C66.6077 17.1292 67.197 18.4285 68.1909 19.3637C69.1758 20.2778 70.4689 20.7685 71.8002 20.7333C73.8527 20.7333 75.3077 19.859 76.1649 18.1104H80.2443C79.703 19.8153 78.6449 21.3008 77.2225 22.353C75.7654 23.4556 73.9546 24.0069 71.7901 24.0069C70.1375 24.0348 68.507 23.6178 67.0628 22.7981C65.6751 21.9955 64.5389 20.8082 63.7858 19.374C62.9702 17.8068 62.5622 16.0526 62.6006 14.2788C62.5629 12.508 62.9587 10.7557 63.7523 9.1802C64.4858 7.75165 65.6133 6.57325 66.9956 5.79027C68.4646 4.97329 70.1172 4.56138 71.7901 4.59524C73.4114 4.56562 75.0125 4.96558 76.4369 5.75603C77.7784 6.50894 78.8805 7.63772 79.6131 9.00899C80.3919 10.491 80.7839 12.1525 80.7513 13.8336C80.7586 14.4751 80.7171 15.1162 80.627 15.7512ZM76.7827 12.6146C76.7945 11.9632 76.6659 11.317 76.406 10.7218C76.146 10.1266 75.7612 9.59685 75.2786 9.16993C74.2633 8.29338 72.9652 7.83217 71.6357 7.87559C70.3915 7.84801 69.1838 8.3047 68.258 9.15281C67.2947 10.0528 66.6959 11.2876 66.5793 12.6146H76.7827Z" fill="white"/>
<path d="M88.8662 5.40334C89.8765 4.84722 91.0122 4.57095 92.1599 4.60208V8.62548H91.1896C89.6944 8.62548 88.5629 9.01127 87.7951 9.78285C87.0274 10.5544 86.6435 11.8956 86.6435 13.8062V23.6952H82.8328V4.91026H86.6435V7.64959C87.1753 6.71251 87.9425 5.93708 88.8662 5.40334Z" fill="white"/>
</g>
<defs>
<clipPath id="clip0_208_974">
<rect width="92.16" height="24" fill="white"/>
</clipPath>
</defs>
</svg>
