<svg width="93" height="24" viewBox="0 0 93 24" fill="none" xmlns="http://www.w3.org/2000/svg">
<g clip-path="url(#clip0_676_5113)">
<path d="M13.6717 0V3.17078H3.81076V10.1595H11.4994V13.3303H3.81076V23.6952H0V0H13.6717Z" fill="black"/>
<path d="M21.5787 5.40334C22.588 4.84765 23.7224 4.57139 24.869 4.60208V8.62548H23.902C22.4068 8.62548 21.2754 9.01127 20.5076 9.78285C19.7399 10.5544 19.356 11.8956 19.356 13.8062V23.6952H15.5452V4.91026H19.356V7.64959C19.8868 6.71179 20.6543 5.93615 21.5787 5.40334V5.40334Z" fill="black"/>
<path d="M26.5914 9.20417C27.3101 7.80335 28.3944 6.63228 29.7245 5.82019C31.0546 5.00809 32.5788 4.58655 34.129 4.60209C35.4505 4.57109 36.7592 4.87213 37.9397 5.47868C38.9486 5.99793 39.8334 6.73666 40.5317 7.64275V4.90342H44.3761V23.6953H40.5149V20.8874C39.8118 21.8222 38.9078 22.5801 37.8726 23.1029C36.593 23.7439 35.1766 24.0483 33.7522 23.9885C32.3279 23.9287 30.9408 23.5065 29.7172 22.7605C28.384 21.9113 27.3033 20.7073 26.5914 19.2781C25.8039 17.7138 25.4071 15.9754 25.4364 14.2172C25.4034 12.4739 25.8005 10.75 26.5914 9.20417V9.20417ZM39.7293 10.9163C39.2525 10.0103 38.5405 9.25573 37.6711 8.73506C36.837 8.23449 35.8858 7.97303 34.918 7.97832C33.9375 7.97006 32.9732 8.23362 32.1282 8.74082C31.2831 9.24802 30.5891 9.97983 30.1201 10.858C29.5753 11.8886 29.3044 13.0467 29.3345 14.2172C29.3088 15.4024 29.5791 16.5749 30.1201 17.6242C30.5981 18.5536 31.3215 19.3281 32.2085 19.8602C33.0358 20.3584 33.979 20.6212 34.9398 20.6212C35.9006 20.6212 36.8438 20.3584 37.6711 19.8602C38.5448 19.3376 39.2577 18.5761 39.7293 17.6619C40.2714 16.6191 40.542 15.4519 40.5149 14.2719C40.5414 13.1008 40.2708 11.9425 39.7293 10.9094V10.9163Z" fill="black"/>
<path d="M50.4901 23.1988C49.4142 22.7217 48.4765 21.9706 47.7671 21.0176C47.1109 20.1254 46.7372 19.0503 46.6961 17.9358H50.6412C50.6754 18.331 50.7935 18.7139 50.9871 19.0579C51.1807 19.402 51.4453 19.6991 51.7626 19.9287C52.5011 20.4823 53.4017 20.7647 54.3176 20.7299C55.3876 20.7299 56.218 20.5199 56.8089 20.0999C57.0786 19.9305 57.3015 19.6939 57.4565 19.4123C57.6116 19.1307 57.6938 18.8135 57.6953 18.4905C57.7025 18.1586 57.6124 17.832 57.4366 17.5526C57.2607 17.2732 57.0071 17.0537 56.7082 16.9222C55.7012 16.4535 54.6551 16.0776 53.5823 15.7991C52.4371 15.4908 51.3104 15.1146 50.208 14.6726C49.336 14.3072 48.5623 13.7343 47.9518 13.0016C47.2867 12.1617 46.9495 11.1007 47.005 10.0225C47.0006 9.03816 47.3053 8.07818 47.8746 7.28321C48.5096 6.40592 49.3709 5.72553 50.3625 5.31774C51.5435 4.82114 52.8121 4.57755 54.0893 4.60209C56.1844 4.60209 57.8721 5.14197 59.1524 6.22172C60.4328 7.30148 61.1177 8.77273 61.2072 10.6355H57.3931C57.3738 10.2469 57.2741 9.86694 57.1005 9.52051C56.9269 9.17408 56.6833 8.86905 56.3859 8.62549C55.6847 8.09432 54.8239 7.82913 53.9517 7.87559C52.9467 7.87559 52.1778 8.06849 51.6451 8.45428C51.395 8.6199 51.1902 8.84749 51.0499 9.11578C50.9096 9.38406 50.8382 9.68427 50.8426 9.98831C50.8375 10.225 50.8819 10.4601 50.9727 10.678C51.0636 10.8958 51.199 11.0915 51.3697 11.2518C51.7486 11.6047 52.1926 11.8771 52.6758 12.0531C53.1862 12.2448 53.9438 12.4891 54.9488 12.7859C56.0695 13.0759 57.169 13.4455 58.2392 13.8919C59.0934 14.2642 59.8535 14.8297 60.4619 15.5457C61.1195 16.3597 61.4676 17.3882 61.4422 18.4426C61.4561 19.4676 61.1517 20.4707 60.5727 21.3086C59.9482 22.1862 59.0975 22.8701 58.115 23.2844C55.659 24.2673 52.9243 24.2366 50.4901 23.1988V23.1988Z" fill="black"/>
<path d="M80.627 15.7512H66.5523C66.6076 17.1292 67.1969 18.4285 68.1908 19.3637C69.1757 20.2778 70.4689 20.7685 71.8001 20.7333C73.8527 20.7333 75.3076 19.859 76.1649 18.1104H80.2442C79.7029 19.8153 78.6448 21.3008 77.2225 22.353C75.7653 23.4556 73.9545 24.0069 71.7901 24.0069C70.1375 24.0348 68.5069 23.6178 67.0627 22.7981C65.6751 21.9955 64.5388 20.8082 63.7858 19.374C62.9702 17.8068 62.5621 16.0526 62.6006 14.2788C62.5629 12.508 62.9587 10.7557 63.7522 9.1802C64.4858 7.75165 65.6132 6.57325 66.9955 5.79027C68.4645 4.97329 70.1172 4.56138 71.7901 4.59524C73.4114 4.56562 75.0125 4.96558 76.4368 5.75603C77.7783 6.50894 78.8804 7.63772 79.613 9.00899C80.3918 10.491 80.7838 12.1525 80.7512 13.8336C80.7585 14.4751 80.717 15.1162 80.627 15.7512ZM76.7827 12.6146C76.7944 11.9632 76.6658 11.317 76.4059 10.7218C76.146 10.1266 75.7611 9.59685 75.2785 9.16993C74.2632 8.29338 72.9652 7.83217 71.6356 7.87559C70.3915 7.84801 69.1837 8.3047 68.258 9.15281C67.2946 10.0528 66.6959 11.2876 66.5792 12.6146H76.7827Z" fill="black"/>
<path d="M88.8663 5.40334C89.8767 4.84722 91.0123 4.57095 92.16 4.60208V8.62548H91.1897C89.6945 8.62548 88.563 9.01127 87.7953 9.78285C87.0275 10.5544 86.6436 11.8956 86.6436 13.8062V23.6952H82.8329V4.91026H86.6436V7.64959C87.1754 6.71251 87.9427 5.93708 88.8663 5.40334Z" fill="black"/>
</g>
<defs>
<clipPath id="clip0_676_5113">
<rect width="92.16" height="24" fill="white"/>
</clipPath>
</defs>
</svg>
