<svg width="1600" height="960" viewBox="0 0 1600 960" fill="none" xmlns="http://www.w3.org/2000/svg">
<g clip-path="url(#clip0_1_572)">
<g opacity="0.4">
<path d="M893.079 74.1986C900.752 73.26 908.431 72.3 916.078 71.1713C917.17 74.5783 918.254 77.9833 919.332 81.3865C920.403 84.7268 924.695 84.1842 925.27 80.8554L927.214 69.3316C934.831 67.9734 942.402 66.3585 949.878 64.2982C950.507 64.1337 951.067 63.7716 951.476 63.2652C951.884 62.7587 952.119 62.1346 952.146 61.4846C952.174 60.8346 951.992 60.193 951.627 59.6541C951.263 59.1153 950.735 58.7075 950.122 58.4909C943.458 56.018 936.753 53.473 930.538 50.0049C931.317 45.4833 932.094 40.9586 932.869 36.4309C933.874 35.3854 934.88 34.3328 935.872 33.2764C937.767 31.2696 936.202 28.4315 934.217 28.0315C933.851 25.1085 928.769 25.2109 928.177 28.6575L927.332 33.5713C924.669 36.3583 921.989 39.0973 919.29 41.7882C918.127 40.6314 917.043 39.3982 916.045 38.0968C913.504 34.769 911.763 30.9599 907.097 30.5624C905.283 30.4067 903.413 32.405 904.025 34.233C905.908 39.9027 907.778 45.5817 909.636 51.2701C903.33 57.3309 896.91 63.2671 890.375 69.0785C887.913 71.2088 890.309 74.5361 893.079 74.1986ZM922.07 64.1409L920.207 64.4534C918.975 60.6374 917.738 56.8225 916.495 53.0087C917.526 52.0084 918.554 51.0152 919.585 50.0149C921.012 51.1136 922.483 52.145 923.998 53.109C923.349 56.7797 922.707 60.457 922.07 64.1409ZM939.295 60.7721C935.65 61.6119 931.991 62.3692 928.319 63.0439L929.485 56.2685C932.67 57.9276 935.961 59.4471 939.297 60.765L939.295 60.7721ZM925.56 44.049C925.416 44.904 925.264 45.7572 925.12 46.6122C924.708 46.3265 924.299 46.0265 923.89 45.7265L925.56 44.049ZM913.844 44.7413C914.122 45.0446 914.4 45.3479 914.689 45.6388L915.063 46.0133L914.452 46.614L913.844 44.7413ZM914.244 65.367C910.023 65.9895 905.794 66.5564 901.563 67.1C904.994 63.9732 908.385 60.8051 911.735 57.5959C912.555 60.192 913.378 62.7839 914.204 65.3718L914.244 65.367Z" fill="#FFC700"/>
<path d="M930.746 134.113C938.419 133.174 946.098 132.214 953.745 131.086C954.837 134.493 955.922 137.898 956.999 141.301C958.071 144.641 962.362 144.099 962.937 140.77L964.881 129.246C972.498 127.888 980.069 126.273 987.545 124.213C988.175 124.048 988.735 123.686 989.143 123.18C989.551 122.673 989.787 122.049 989.814 121.399C989.841 120.749 989.659 120.107 989.295 119.569C988.93 119.03 988.402 118.622 987.789 118.405C981.125 115.932 974.42 113.387 968.205 109.919C968.984 105.398 969.761 100.873 970.537 96.3452C971.541 95.2998 972.547 94.2472 973.539 93.1908C975.434 91.1839 973.87 88.3458 971.884 87.9458C971.519 85.0228 966.436 85.1253 965.845 88.5719L965 93.4857C962.337 96.2727 959.656 99.0116 956.958 101.703C955.795 100.546 954.71 99.3125 953.712 98.0112C951.171 94.6834 949.431 90.8743 944.764 90.4768C942.95 90.3211 941.08 92.3194 941.692 94.1474C943.575 99.8171 945.445 105.496 947.303 111.184C940.997 117.245 934.577 123.181 928.042 128.993C925.58 131.123 927.976 134.45 930.746 134.113ZM959.737 124.055L957.875 124.368C956.643 120.552 955.405 116.737 954.162 112.923C955.193 111.923 956.222 110.93 957.252 109.929C958.68 111.028 960.151 112.059 961.665 113.023C961.017 116.694 960.374 120.371 959.737 124.055ZM976.963 120.686C973.318 121.526 969.659 122.284 965.986 122.958L967.153 116.183C970.337 117.842 973.628 119.361 976.965 120.679L976.963 120.686ZM963.227 103.963C963.083 104.818 962.932 105.672 962.788 106.527C962.375 106.241 961.966 105.941 961.558 105.641L963.227 103.963ZM951.512 104.656C951.79 104.959 952.068 105.262 952.356 105.553L952.73 105.928L952.119 106.528L951.512 104.656ZM951.911 125.281C947.69 125.904 943.461 126.471 939.231 127.014C942.661 123.888 946.052 120.719 949.403 117.51C950.222 120.106 951.045 122.698 951.872 125.286L951.911 125.281Z" fill="#FFC700"/>
<path d="M811.928 88.0311C819.601 87.0925 827.28 86.1326 834.927 85.0039C836.019 88.4108 837.104 91.8158 838.181 95.219C839.252 98.5594 843.544 98.0167 844.119 94.688L846.063 83.1642C853.68 81.8059 861.251 80.191 868.727 78.1308C869.357 77.9663 869.917 77.6042 870.325 77.0977C870.733 76.5912 870.968 75.9671 870.996 75.3171C871.023 74.6671 870.841 74.0256 870.476 73.4867C870.112 72.9478 869.584 72.54 868.971 72.3234C862.307 69.8506 855.602 67.3055 849.387 63.8375C850.166 59.3158 850.943 54.7911 851.718 50.2634C852.723 49.2179 853.729 48.1653 854.721 47.1089C856.616 45.1021 855.052 42.264 853.066 41.864C852.701 38.941 847.618 39.0434 847.027 42.4901L846.181 47.4038C843.519 50.1908 840.838 52.9298 838.14 55.6208C836.977 54.4639 835.892 53.2307 834.894 51.9293C832.353 48.6015 830.613 44.7924 825.946 44.3949C824.132 44.2393 822.262 46.2376 822.874 48.0656C824.757 53.7352 826.627 59.4143 828.485 65.1026C822.179 71.1635 815.759 77.0996 809.224 82.911C806.762 85.0413 809.158 88.3686 811.928 88.0311ZM840.919 77.9734L839.057 78.2859C837.825 74.4699 836.587 70.655 835.344 66.8412C836.375 65.8409 837.403 64.8477 838.434 63.8474C839.862 64.9461 841.333 65.9775 842.847 66.9416C842.199 70.6122 841.556 74.2895 840.919 77.9734ZM858.145 74.6047C854.499 75.4444 850.841 76.2017 847.168 76.8764L848.335 70.101C851.519 71.7602 854.81 73.2796 858.147 74.5975L858.145 74.6047ZM844.409 57.8816C844.265 58.7366 844.114 59.5897 843.97 60.4447C843.557 60.159 843.148 59.859 842.74 59.5591L844.409 57.8816ZM832.693 58.5739C832.971 58.8771 833.249 59.1804 833.538 59.4713L833.912 59.8459L833.301 60.4465L832.693 58.5739ZM833.093 79.1995C828.872 79.822 824.643 80.3889 820.412 80.9325C823.843 77.8057 827.234 74.6376 830.585 71.4284C831.404 74.0245 832.227 76.6164 833.054 79.2043L833.093 79.1995Z" fill="#FFC700"/>
</g>
<g opacity="0.4">
<path d="M205.867 840.975C206.354 840.46 207.003 840.126 207.705 840.029C208.408 839.932 209.122 840.078 209.731 840.442C319.43 904.604 541.705 894.132 667.418 885.232C832.62 873.535 1273.12 795.917 1394.57 907.268C1394.9 907.576 1395.12 907.973 1395.22 908.409C1395.32 908.845 1395.29 909.301 1395.13 909.719C1395 910.074 1394.78 910.392 1394.5 910.649C1394.22 910.906 1393.89 911.095 1393.52 911.201C1393.16 911.307 1392.78 911.327 1392.4 911.259C1392.03 911.192 1391.68 911.039 1391.37 910.812C1301.21 845.611 995.929 884.167 876.131 886.405C706.747 898.848 534.698 918.912 365.42 894.718C311.569 886.058 252.603 876.333 206.373 845.691C205.997 845.439 205.681 845.108 205.447 844.721C205.212 844.334 205.066 843.901 205.018 843.451C204.969 843.001 205.02 842.546 205.167 842.118C205.314 841.69 205.553 841.3 205.867 840.975Z" fill="#2C6AE4"/>
<path d="M270.242 910.892C359.531 933.86 452.284 946.41 544.263 940.202C544.456 940.206 544.641 940.28 544.783 940.409C544.926 940.539 545.017 940.715 545.04 940.907C545.062 941.098 545.015 941.291 544.907 941.45C544.798 941.61 544.636 941.725 544.45 941.774C451.993 959.113 356.479 948.922 269.763 912.464C269.659 912.432 269.563 912.381 269.48 912.312C269.397 912.244 269.328 912.159 269.277 912.064C269.226 911.969 269.195 911.864 269.184 911.757C269.174 911.65 269.185 911.541 269.216 911.438C269.248 911.335 269.299 911.239 269.368 911.156C269.437 911.072 269.521 911.003 269.616 910.952C269.711 910.902 269.816 910.87 269.923 910.86C270.031 910.849 270.139 910.86 270.242 910.892Z" fill="#2C6AE4"/>
<path d="M567.285 932.341C575.989 930.154 584.966 929.257 593.93 929.677C594.715 929.716 595.458 930.043 596.017 930.595C596.576 931.147 596.912 931.885 596.962 932.669C597.011 933.453 596.77 934.228 596.285 934.846C595.799 935.464 595.104 935.881 594.33 936.018C585.614 937.674 576.769 938.566 567.898 938.683C567.097 938.691 566.323 938.399 565.728 937.864C565.133 937.329 564.76 936.59 564.683 935.793C564.606 934.997 564.83 934.2 565.312 933.561C565.794 932.922 566.498 932.487 567.285 932.341Z" fill="#2C6AE4"/>
</g>
<g opacity="0.4">
<path d="M508.391 348.843C512.264 362.678 527.881 372.42 540.628 376.757C554.87 381.609 570.363 381.308 584.405 375.908C589.65 373.911 587.009 366.993 582.338 366.461C582.264 366.394 582.186 366.333 582.104 366.277C565.296 354.629 548.667 342.622 531.642 331.306C525.892 327.484 519.303 326.013 513.537 330.863C511.026 333.037 509.203 335.894 508.289 339.087C507.376 342.28 507.411 345.67 508.391 348.843ZM522.139 337.858C524.738 337.864 528.283 341.411 530.26 342.778C533.239 344.846 536.229 346.906 539.209 348.974C549.103 355.822 558.99 362.676 568.87 369.536C550.653 371.957 529.392 365.435 519.855 349.721C518.087 346.838 516.089 337.831 522.093 337.893L522.139 337.858Z" fill="#009460"/>
<path d="M567.045 324.271C564.92 333.543 570.911 344.159 576.941 350.76C583.688 358.085 592.79 362.812 602.662 364.119C606.34 364.62 607.008 359.77 604.458 357.971L604.343 357.823C598.259 345.727 592.41 333.484 586.086 321.502C583.95 317.463 580.631 314.489 575.704 315.507C573.57 315.979 571.618 317.057 570.082 318.612C568.546 320.167 567.491 322.132 567.045 324.271ZM578.52 322.252C580.021 323.077 580.959 326.257 581.685 327.684C582.765 329.823 583.841 331.982 584.886 334.147L595.621 355.49C584.296 351.125 573.964 340.614 573.399 328.447C573.299 326.204 575.01 320.323 578.52 322.252Z" fill="#009460"/>
</g>
<path opacity="0.4" d="M1482.42 150.362C1490.83 125.353 1499.04 100.409 1507.45 75.3997C1511.66 62.7735 1503.91 62.4423 1496.53 69.3994C1496.39 63.9911 1492.58 61.8666 1485.38 68.3789L1434.28 114.591C1420.6 127.155 1405.73 137.256 1396.2 157.915C1385.76 180.418 1377.82 203.476 1368.93 225.635L1340.99 295.27C1336.14 307.335 1343.54 308.799 1351.27 301.891C1384.64 271.759 1418.03 238.562 1451 202.471C1467.49 184.459 1475.01 172.396 1482.42 150.362ZM1434.48 198.103C1413.45 220.509 1392.37 241.647 1371.22 261.517L1407.55 170.984C1408.9 167.037 1410.45 163.161 1412.19 159.369C1415.58 152.927 1416.91 152.58 1422.26 147.783L1441.43 130.401L1485.26 90.7452L1467.36 144.343C1464.57 152.641 1462.11 164.162 1456.84 172.778C1451.56 181.393 1441.11 190.985 1434.48 198.103Z" fill="#9F40FE"/>
<path opacity="0.4" d="M283.054 148.591C260.257 131.378 254.096 100.366 265.956 74.9847C266.633 73.75 267.043 72.3874 267.161 70.9846C267.279 69.5818 267.102 68.1698 266.641 66.8396C266.18 65.5094 265.446 64.2904 264.486 63.2611C263.525 62.2318 262.36 61.415 261.065 60.8633C257.511 54.5872 249.251 50.9876 242.49 57.3099C224.025 74.9954 199.613 85.1355 174.052 85.7372C161.869 85.991 156.008 100.874 166.276 108.488C189.95 126.048 198.949 160.936 185.174 187.448C180.259 196.885 189.212 213.36 200.98 205.653C212.748 197.946 221.031 186.825 231.599 177.318C243.251 166.843 257.465 167.119 272.002 170.673C285.362 173.972 294.591 157.382 283.054 148.591ZM229.984 148.591C224.871 151.014 220.193 154.265 216.139 158.213C215.914 140 210.134 122.29 199.572 107.45C212.131 104.664 224.196 99.9969 235.36 93.6054C233.924 111.191 237.953 128.791 246.897 143.999C241.006 144.603 235.249 146.146 229.845 148.568L229.984 148.591Z" fill="white"/>
<path opacity="0.4" d="M260.928 405.24C270.898 405.057 280.853 404.797 290.793 404.559C291.808 404.52 292.797 404.222 293.666 403.694C294.534 403.166 295.254 402.425 295.756 401.541C296.258 400.657 296.527 399.66 296.537 398.644C296.546 397.627 296.296 396.625 295.81 395.733C297.21 395.048 298.284 393.839 298.798 392.367C299.312 390.895 299.225 389.281 298.555 387.874L287.391 363.974C284.388 357.562 282.631 349.887 274.946 348.29C266.331 346.94 257.647 346.078 248.934 345.706C240.012 344.83 231.091 343.968 222.173 343.119C217.533 342.66 215.349 348.066 217.004 351.669C224.218 367.304 232.929 382.202 243.015 396.156C248.087 403.138 252.208 405.393 260.928 405.24ZM248.352 383.788C242.21 374.748 236.653 365.323 231.716 355.572L266.486 358.988C267.982 358.975 269.475 359.12 270.94 359.42C273.248 360.188 273.259 361.017 274.29 363.54L278.419 372.437L287.994 392.986L266.654 393.447C263.233 393.452 258.45 394.64 255.538 393.011C252.626 391.382 250.392 386.732 248.413 383.898L248.352 383.788Z" fill="#FFC700"/>
<g opacity="0.4">
<path d="M589.742 43.7779C596.457 51.078 604.33 57.2211 613.043 61.9603C548.22 54.8409 557.606 89.4989 573.853 135.685C575.53 141.782 579.933 158.794 568.605 154.584C535.885 127.226 525.613 80.455 492.984 51.8068C488.591 47.0583 482.831 43.7919 476.501 42.4589C470.171 41.126 463.584 41.7924 457.649 44.3661C451.715 46.9398 446.726 51.2937 443.373 56.8257C440.02 62.3577 438.469 68.7947 438.934 75.2467C441.148 111.584 461.718 142.771 470.2 177.17C491.059 234.043 444.96 284.181 389.301 251.056C401.569 219.637 403.12 151.207 354.971 154.711C305.006 174.365 342.261 240.986 374.757 260.129C333.691 345.449 236.815 326.386 169.666 285.066L168.501 286.869C236.777 333.218 337.891 351.999 382.914 265.35C429.69 296.353 493.703 267.118 494.03 209.246C495.007 166.852 473.779 129.33 463.319 89.761C461.416 80.6182 457.448 65.1722 469.656 63.5443C487.412 69.7487 497.974 91.601 509.319 106.582C522.816 126.268 534.265 147.744 552.581 163.96C565.661 177.495 591.632 172.13 591.161 150.949C588.407 109.621 537.72 64.8088 613.379 65.8039C603.99 69.5176 593.963 77.4625 593.247 88.2929L594.043 88.506C602.225 78.0877 614.372 75.3513 625.373 69.3736C626.372 68.8932 627.192 68.1089 627.717 67.1333C628.241 66.1576 628.443 65.0409 628.294 63.9432C628.144 62.8456 627.651 61.8236 626.884 61.024C626.117 60.2243 625.117 59.6881 624.027 59.4924C611.78 56.674 600.625 50.4796 590.449 43.1141L589.742 43.7779ZM362.574 229.482C302.679 152.022 410.212 135.361 380.47 245.484C373.915 240.849 367.911 235.48 362.574 229.482ZM622.531 66.036C622.614 66.0414 622.658 66.0701 622.531 66.036Z" fill="#9F40FE"/>
<path d="M245.606 292.278C271.529 297.035 308.152 293.311 330.888 279.641C330.934 279.619 330.987 279.613 331.038 279.624C331.088 279.636 331.133 279.664 331.166 279.704C331.198 279.744 331.216 279.794 331.217 279.846C331.218 279.898 331.201 279.948 331.17 279.989C312.115 299.03 269.756 303.658 245.539 292.721C245.491 292.701 245.452 292.666 245.426 292.621C245.401 292.576 245.392 292.524 245.399 292.473C245.407 292.422 245.432 292.376 245.469 292.34C245.507 292.305 245.555 292.283 245.606 292.278Z" fill="white"/>
<path d="M221.285 286.38C226.261 286.166 231.194 287.391 235.491 289.911C235.661 290.007 235.793 290.159 235.864 290.341C235.934 290.523 235.939 290.724 235.877 290.91C235.816 291.095 235.691 291.254 235.525 291.357C235.36 291.461 235.163 291.503 234.969 291.478C230.109 291.253 225.34 290.074 220.934 288.01C220.742 287.941 220.582 287.805 220.482 287.627C220.383 287.449 220.352 287.241 220.395 287.041C220.438 286.842 220.552 286.665 220.716 286.543C220.88 286.422 221.082 286.364 221.285 286.38Z" fill="white"/>
<path d="M440.554 169.624C438.87 168.187 437.523 166.399 436.606 164.384C435.689 162.37 435.225 160.179 435.247 157.966C435.255 157.743 435.324 157.527 435.447 157.34C435.57 157.154 435.741 157.005 435.943 156.91C436.144 156.814 436.368 156.776 436.59 156.798C436.812 156.821 437.023 156.904 437.201 157.039C438.885 158.475 440.234 160.263 441.151 162.278C442.068 164.292 442.531 166.484 442.508 168.697C442.494 168.917 442.422 169.13 442.298 169.313C442.174 169.496 442.004 169.642 441.804 169.737C441.605 169.831 441.383 169.871 441.164 169.851C440.944 169.831 440.733 169.753 440.554 169.624Z" fill="white"/>
<path d="M433.087 150.802C416.154 124.258 397.595 74.5349 423.105 50.0565C423.195 49.9495 423.323 49.8812 423.462 49.8657C423.601 49.8502 423.74 49.8888 423.851 49.9734C423.962 50.0581 424.037 50.1822 424.059 50.3202C424.081 50.4582 424.049 50.5994 423.97 50.7145C408.608 80.1793 426.86 119.447 434.165 150.408C434.217 150.551 434.21 150.709 434.146 150.847C434.082 150.985 433.966 151.092 433.823 151.144C433.68 151.196 433.522 151.189 433.384 151.125C433.246 151.061 433.139 150.945 433.087 150.802Z" fill="white"/>
</g>
<g opacity="0.4">
<path d="M1225.98 272.3C1213.02 268.041 1198.7 269.507 1185.86 273.184C1232.3 237.614 1291.18 200.328 1301.04 137.614C1309.07 67.7721 1238.08 7.84446 1170.53 18.6864C1135.99 22.8366 1104.16 39.462 1081.02 65.436C1039.52 106.914 1037.72 201.358 1107.94 211.795C1157.26 218.505 1177.63 165.922 1168.05 125.817C1167.93 125.246 1167.64 124.724 1167.22 124.315C1166.8 123.905 1166.27 123.625 1165.7 123.508C1165.5 123.475 1165.3 123.49 1165.11 123.552C1164.92 123.613 1164.75 123.719 1164.61 123.861C1164.47 124.004 1164.37 124.177 1164.31 124.368C1164.25 124.558 1164.24 124.76 1164.28 124.955C1180.25 226.35 1060.67 229.81 1065.08 136.472C1070.49 79.1841 1127.91 36.8545 1183.56 38.1654C1236.71 37.7169 1286.1 92.0115 1274.57 145.057C1260.04 197.362 1211.25 232.43 1175.92 271.495C1180.29 257.866 1182.39 243.614 1182.15 229.304C1182.14 228.933 1182.02 228.573 1181.81 228.266C1181.6 227.959 1181.31 227.716 1180.97 227.567C1180.79 227.485 1180.59 227.446 1180.4 227.452C1180.2 227.459 1180.01 227.512 1179.83 227.606C1179.66 227.701 1179.51 227.834 1179.4 227.996C1179.29 228.158 1179.21 228.345 1179.18 228.54C1175.66 250.962 1166.27 272.578 1154.68 291.942C1154.23 292.695 1154.04 293.573 1154.12 294.447C1154.21 295.32 1154.58 296.142 1155.17 296.789C1155.77 297.436 1156.55 297.874 1157.42 298.037C1158.28 298.201 1159.17 298.081 1159.96 297.696C1180.58 287.721 1204.44 279.522 1225.66 277.466C1226.27 277.402 1226.83 277.121 1227.24 276.675C1227.65 276.23 1227.88 275.65 1227.9 275.044C1227.9 274.443 1227.72 273.857 1227.37 273.366C1227.03 272.874 1226.54 272.502 1225.98 272.3Z" fill="#009460"/>
<path d="M1322.01 116.902C1320.96 110.337 1320.48 103.692 1320.6 97.0441C1320.6 96.7521 1320.7 96.4692 1320.88 96.2399C1321.06 96.0106 1321.31 95.8478 1321.6 95.7771C1321.88 95.7064 1322.18 95.7318 1322.44 95.8492C1322.71 95.9667 1322.93 96.1696 1323.07 96.4261C1324.71 99.6088 1325.68 103.09 1325.93 106.659C1326.18 110.228 1325.71 113.811 1324.54 117.192C1324.43 117.463 1324.24 117.691 1323.99 117.841C1323.74 117.99 1323.45 118.054 1323.16 118.02C1322.87 117.987 1322.6 117.86 1322.4 117.657C1322.19 117.455 1322.05 117.189 1322.01 116.902Z" fill="white"/>
<path d="M1316.16 79.6974C1301.25 50.4232 1277.59 23.7031 1245.35 7.91533C1244.69 7.58371 1245.14 6.64694 1245.88 6.74482C1281.9 11.7275 1311.69 45.9181 1317.43 79.2541C1317.49 79.422 1317.48 79.6064 1317.4 79.7667C1317.32 79.927 1317.19 80.0501 1317.02 80.1089C1316.85 80.1676 1316.67 80.1573 1316.51 80.0802C1316.35 80.003 1316.22 79.8653 1316.16 79.6974Z" fill="white"/>
<path d="M1048.75 82.4682C1048.93 82.517 1049.1 82.6124 1049.24 82.745C1049.37 82.8777 1049.47 83.0431 1049.53 83.2254C1049.58 83.4076 1049.58 83.6006 1049.54 83.7855C1049.5 83.9705 1049.41 84.1412 1049.28 84.2813C1027.23 109.817 1026.49 149.497 1036.31 166.104C1036.36 166.227 1036.39 166.36 1036.39 166.494C1036.39 166.629 1036.36 166.761 1036.31 166.884C1036.25 167.007 1036.17 167.116 1036.07 167.206C1035.97 167.295 1035.85 167.363 1035.73 167.404C1035.47 167.486 1035.2 167.493 1034.95 167.425C1034.69 167.357 1034.46 167.217 1034.28 167.021C1014.65 149.377 1023.2 105.357 1046.73 82.977C1047 82.7225 1047.33 82.5445 1047.69 82.4612C1048.05 82.3779 1048.43 82.3922 1048.79 82.5028L1048.75 82.4682Z" fill="white"/>
</g>
<g opacity="0.4">
<path d="M672.674 377.861C671.87 380.788 671.784 383.86 672.422 386.826C673.059 389.792 674.403 392.57 676.344 394.933C678.358 397.231 681.056 398.855 684.061 399.579C687.065 400.303 690.226 400.09 693.102 398.971C696.482 397.921 699.384 395.754 701.31 392.842C703.235 389.929 704.063 386.451 703.653 383.006C703.547 382.576 703.355 382.172 703.086 381.816C702.818 381.461 702.479 381.162 702.09 380.937C701.701 380.712 701.269 380.566 700.821 380.507C700.373 380.448 699.918 380.478 699.482 380.595C699.046 380.711 698.638 380.913 698.284 381.186C697.929 381.46 697.634 381.801 697.416 382.188C697.199 382.576 697.063 383.002 697.017 383.441C696.971 383.881 697.016 384.325 697.149 384.748C697.149 384.009 697.149 385.012 697.149 385.091C697.149 385.17 697.149 385.592 697.149 385.83C697.162 385.944 697.162 386.059 697.149 386.173C697.108 386.404 697.054 386.633 696.987 386.859L696.826 387.413L696.61 387.861C696.367 388.336 696.097 388.785 695.8 389.26C695.625 389.482 695.436 389.694 695.233 389.893C694.885 390.265 694.516 390.617 694.127 390.949H693.965H693.803L693.29 391.292C692.751 391.635 692.184 391.925 691.644 392.215H691.455H691.267L690.673 392.426C690.127 392.607 689.567 392.748 689 392.849H688.622H688.055H686.49H686.004L685.114 392.638H684.736C684.552 392.539 684.363 392.451 684.169 392.374C683.725 392.154 683.301 391.898 682.901 391.608L682.631 391.397C682.357 391.165 682.096 390.918 681.849 390.658L681.336 390.104C681.041 389.689 680.77 389.257 680.526 388.811C680.364 388.547 680.229 388.257 680.095 387.993C679.86 387.425 679.662 386.844 679.501 386.252C679.501 385.935 679.366 385.645 679.285 385.328V384.853C679.285 384.669 679.285 384.326 679.285 384.352C679.285 384.378 679.285 383.719 679.285 383.402C679.285 383.085 679.285 382.346 679.285 381.819C679.272 381.608 679.272 381.396 679.285 381.185C679.285 380.974 679.285 380.763 679.285 380.552C679.285 380.341 679.528 379.549 679.69 379.048C679.852 378.547 679.852 378.547 679.96 378.283C679.947 378.178 679.947 378.071 679.96 377.966C680.157 377.522 680.383 377.09 680.634 376.673L681.147 375.882V375.697L681.282 375.538C681.66 375.116 682.064 374.668 682.496 374.272C682.753 374.029 683.024 373.8 683.306 373.586L683.468 373.454H683.603C684.088 373.137 684.574 372.821 685.114 372.53L685.896 372.134L686.517 371.844C687.858 371.336 689.251 370.973 690.673 370.762H691.024C691.455 370.762 691.86 370.762 692.292 370.762C693.02 370.723 693.75 370.723 694.478 370.762C694.774 370.736 695.072 370.736 695.368 370.762C695.8 370.762 695.854 370.762 695.557 370.762H696.097C696.826 370.894 697.527 371.053 698.229 371.237C699.532 371.578 700.777 372.103 701.926 372.794C702.699 373.235 703.619 373.358 704.485 373.135C705.35 372.912 706.089 372.363 706.54 371.607C706.991 370.851 707.117 369.951 706.889 369.105C706.661 368.259 706.099 367.535 705.326 367.094C693.83 360.682 676.371 364.218 672.674 377.861Z" fill="#2C6AE4"/>
<path d="M760.453 386.363C757.795 385.156 754.892 384.567 751.958 384.639C749.023 384.711 746.13 385.442 743.493 386.779C740.819 388.152 738.552 390.218 736.928 392.758C735.304 395.298 734.385 398.22 734.266 401.215C734.041 404.657 734.811 408.074 736.483 411.056C738.155 414.038 740.657 416.457 743.688 418.021C744.502 418.323 745.405 418.294 746.207 417.939C747.01 417.584 747.648 416.931 747.987 416.12C748.327 415.308 748.341 414.401 748.026 413.59C747.711 412.779 747.092 412.128 746.301 411.775C744.696 410.866 743.36 409.551 742.423 407.959C741.486 406.367 740.98 404.552 740.953 402.69C740.789 400.814 741.154 398.922 742.007 397.228C742.859 395.534 744.165 394.108 745.776 393.111C747.419 392.157 749.246 391.575 751.127 391.407C753.007 391.239 754.895 391.488 756.655 392.137C758.449 392.779 760.044 393.871 761.29 395.311C762.536 396.75 763.392 398.49 763.778 400.367C764.312 402.598 764.298 404.935 763.736 407.177C763.174 409.419 762.082 411.5 760.553 413.242C760.009 413.956 759.763 414.851 759.867 415.734C759.972 416.618 760.419 417.419 761.112 417.965C761.819 418.487 762.703 418.711 763.581 418.592C764.459 418.473 765.263 418.02 765.825 417.327C774.101 407.952 771.976 391.789 760.453 386.363Z" fill="#2C6AE4"/>
<path d="M716.506 424.439C713.982 422.536 711.083 421.199 708.005 420.518C704.926 419.837 701.739 419.827 698.657 420.49C695.56 421.22 692.684 422.69 690.27 424.778C687.857 426.865 685.977 429.508 684.79 432.483C684.171 434.227 683.911 436.081 684.027 437.93C684.142 439.778 684.63 441.584 685.46 443.236C686.291 444.889 687.447 446.353 688.858 447.539C690.268 448.726 691.904 449.61 693.665 450.137C697.093 451.189 698.557 445.785 695.14 444.745C694.135 444.439 693.201 443.934 692.392 443.26C691.583 442.586 690.915 441.756 690.427 440.819C689.94 439.881 689.642 438.855 689.553 437.8C689.463 436.746 689.582 435.684 689.904 434.676C691.213 430.47 695.284 427.259 699.378 426.084C707.753 423.701 718.447 429.653 718.481 438.894C718.552 441.158 717.971 443.395 716.807 445.333C715.643 447.271 713.947 448.827 711.924 449.813C711.295 450.193 710.839 450.807 710.654 451.522C710.47 452.238 710.571 452.998 710.937 453.639C711.321 454.265 711.929 454.718 712.635 454.905C713.341 455.093 714.091 455 714.731 454.646C720.2 452.151 723.395 446.378 723.95 440.516C724.18 437.417 723.617 434.311 722.313 431.496C721.01 428.68 719.01 426.25 716.506 424.439Z" fill="#2C6AE4"/>
</g>
<g opacity="0.4">
<path d="M1509.15 754.357C1497.22 773.158 1488.47 793.798 1483.25 815.446C1461.05 670.735 1391.34 711.214 1300.61 773.265C1288.37 780.443 1254.03 799.868 1256.58 772.858C1296.91 686.017 1392.38 636.583 1435.56 549.187C1443.3 536.904 1447.04 522.517 1446.26 508.016C1445.47 493.515 1440.2 479.616 1431.17 468.24C1422.15 456.865 1409.81 448.574 1395.86 444.516C1381.92 440.457 1367.06 440.831 1353.34 445.585C1275.82 471.485 1220.14 534.202 1150.46 572.572C1039.24 650.829 903.741 579.972 943.258 440.034C1018.52 448.397 1167.82 412.025 1132.26 309.643C1060.62 212.701 937.782 332.177 915.137 413.764C706.267 374.247 691.356 153.092 741.973 -16.52L737.385 -18C676.518 156.977 694.501 387.16 908.551 434.484C868.479 553.923 969.048 675.767 1094.74 642.873C1187.24 620.377 1256.29 552.554 1336.02 506.895C1354.75 497.46 1385.94 479.884 1396.56 505.415C1393.41 547.522 1352.16 583.117 1326.25 616.418C1291.4 657.119 1251.48 694.416 1226.94 743.553C1205.19 779.777 1231.9 832.984 1277.56 819.664C1365.59 789.693 1433.34 653.752 1475.11 818.406C1461.6 800.201 1438.55 783.07 1414.65 787.806V789.656C1441.99 801.348 1454.98 826.102 1474.33 846.489C1475.95 848.375 1478.13 849.699 1480.55 850.27C1482.97 850.841 1485.51 850.631 1487.8 849.669C1490.1 848.707 1492.03 847.043 1493.32 844.917C1494.61 842.79 1495.19 840.309 1494.98 837.831C1493.98 809.637 1500.94 781.849 1511 755.504L1509.15 754.357ZM974.524 369.548C1107.73 194.681 1206.3 418.204 950.214 417.649C956.46 400.742 964.616 384.604 974.524 369.548ZM1479.92 838.386C1479.96 838.571 1479.92 838.682 1479.92 838.386Z" fill="#FFC700"/>
<path d="M770.426 152.352C775.162 211.332 804.504 288.59 847.351 329.957C847.426 330.045 847.469 330.156 847.474 330.272C847.478 330.388 847.443 330.502 847.375 330.596C847.307 330.69 847.209 330.758 847.097 330.79C846.985 330.821 846.867 330.815 846.759 330.771C794.403 300.504 759.77 211.332 769.427 152.463C769.443 152.349 769.496 152.243 769.579 152.162C769.661 152.081 769.769 152.03 769.883 152.017C769.998 152.005 770.114 152.031 770.213 152.091C770.311 152.152 770.386 152.244 770.426 152.352Z" fill="#FFC700"/>
<path d="M769.094 96.185C772.45 106.852 772.656 118.261 769.687 129.042C769.578 129.467 769.325 129.841 768.971 130.1C768.616 130.359 768.183 130.486 767.745 130.46C767.307 130.434 766.891 130.256 766.57 129.956C766.25 129.657 766.043 129.255 765.986 128.82C763.652 118.149 763.438 107.123 765.358 96.3699C765.395 95.9137 765.597 95.4867 765.925 95.1683C766.254 94.8499 766.688 94.6619 767.145 94.6392C767.602 94.6166 768.052 94.7609 768.411 95.0453C768.769 95.3297 769.012 95.7347 769.094 96.185Z" fill="#FFC700"/>
<path d="M1149.61 503.898C1151.75 499.413 1154.85 495.452 1158.68 492.294C1162.52 489.135 1167 486.857 1171.81 485.62C1172.3 485.508 1172.81 485.533 1173.29 485.691C1173.76 485.849 1174.18 486.135 1174.51 486.516C1174.83 486.898 1175.05 487.361 1175.12 487.855C1175.2 488.349 1175.15 488.856 1174.96 489.32C1172.82 493.806 1169.73 497.769 1165.89 500.927C1162.05 504.086 1157.57 506.363 1152.76 507.598C1152.27 507.696 1151.77 507.662 1151.3 507.5C1150.83 507.338 1150.42 507.053 1150.09 506.675C1149.77 506.298 1149.56 505.841 1149.47 505.352C1149.39 504.864 1149.44 504.362 1149.61 503.898Z" fill="#FFC700"/>
<path d="M1186.09 476.776C1233.83 424.642 1330.88 355.525 1398.78 396.633C1399.06 396.765 1399.28 397.002 1399.4 397.295C1399.51 397.587 1399.51 397.912 1399.39 398.202C1399.27 398.492 1399.04 398.725 1398.76 398.853C1398.47 398.981 1398.15 398.995 1397.85 398.89C1325.03 382.683 1250.48 445.067 1187.57 478.886C1187.3 479.082 1186.95 479.159 1186.61 479.1C1186.28 479.041 1185.98 478.851 1185.78 478.571C1185.58 478.291 1185.51 477.945 1185.57 477.609C1185.62 477.272 1185.82 476.973 1186.09 476.776Z" fill="#FFC700"/>
</g>
<g opacity="0.4">
<path d="M707.678 787.662C698.46 802.187 691.7 818.131 687.669 834.855C670.519 723.063 616.667 754.333 546.579 802.269C537.117 807.814 510.591 822.821 512.564 801.954C543.72 734.868 617.467 696.68 650.825 629.164C656.809 619.675 659.698 608.561 659.092 597.358C658.485 586.156 654.414 575.419 647.44 566.631C640.466 557.843 630.935 551.439 620.163 548.303C609.391 545.168 597.911 545.457 587.311 549.129C527.427 569.138 484.408 617.588 430.585 647.229C344.661 707.684 239.987 652.946 270.514 544.841C328.654 551.301 443.991 523.203 416.521 444.111C361.183 369.221 266.284 461.519 248.791 524.547C87.4339 494.019 75.9145 323.172 115.017 192.143L111.473 191C64.4524 326.174 78.3441 503.995 243.702 540.554C212.746 632.823 290.437 726.95 387.537 701.539C458.997 684.16 512.335 631.765 573.934 596.493C588.397 589.204 612.493 575.626 620.697 595.349C618.267 627.878 586.396 655.376 566.387 681.101C539.461 712.544 508.619 741.356 489.668 779.316C472.861 807.3 493.498 848.403 528.771 838.113C596.772 814.96 649.109 709.943 681.381 837.141C670.948 823.078 653.14 809.844 634.675 813.502V814.931C655.798 823.964 665.831 843.087 680.781 858.836C682.033 860.293 683.715 861.316 685.585 861.757C687.455 862.198 689.416 862.036 691.188 861.293C692.96 860.55 694.45 859.264 695.446 857.621C696.442 855.978 696.892 854.062 696.73 852.148C695.959 830.367 701.332 808.9 709.107 788.548L707.678 787.662ZM294.668 490.389C397.57 355.301 473.718 527.977 275.888 527.548C280.713 514.487 287.014 502.02 294.668 490.389ZM685.097 852.577C685.125 852.719 685.097 852.805 685.097 852.577Z" fill="#231F20"/>
<path d="M136.998 322.601C140.657 368.164 163.324 427.847 196.424 459.804C196.482 459.872 196.516 459.958 196.519 460.048C196.522 460.137 196.495 460.225 196.443 460.298C196.39 460.37 196.314 460.423 196.228 460.448C196.142 460.472 196.05 460.467 195.967 460.433C155.521 437.051 128.766 368.164 136.226 322.686C136.238 322.598 136.279 322.516 136.343 322.454C136.407 322.391 136.49 322.352 136.579 322.342C136.668 322.332 136.757 322.352 136.833 322.399C136.909 322.446 136.967 322.517 136.998 322.601Z" fill="#231F20"/>
<path d="M135.969 279.21C138.562 287.451 138.72 296.264 136.427 304.593C136.343 304.922 136.148 305.211 135.874 305.411C135.6 305.611 135.265 305.709 134.927 305.689C134.588 305.668 134.267 305.531 134.019 305.299C133.772 305.068 133.612 304.758 133.568 304.421C131.765 296.178 131.6 287.66 133.082 279.353C133.111 279.001 133.267 278.671 133.521 278.425C133.775 278.179 134.11 278.034 134.463 278.016C134.816 277.999 135.164 278.11 135.441 278.33C135.718 278.55 135.906 278.862 135.969 279.21Z" fill="#231F20"/>
<path d="M429.927 594.177C431.579 590.713 433.971 587.652 436.935 585.213C439.898 582.773 443.36 581.013 447.078 580.057C447.455 579.971 447.848 579.99 448.215 580.112C448.582 580.234 448.909 580.455 449.159 580.749C449.41 581.044 449.575 581.402 449.636 581.784C449.698 582.166 449.653 582.557 449.507 582.915C447.857 586.381 445.466 589.442 442.502 591.882C439.539 594.322 436.075 596.082 432.357 597.036C431.982 597.112 431.593 597.085 431.231 596.96C430.869 596.835 430.548 596.615 430.3 596.323C430.052 596.031 429.886 595.678 429.821 595.301C429.756 594.924 429.792 594.536 429.927 594.177Z" fill="#231F20"/>
<path d="M458.111 573.225C494.984 532.951 569.96 479.556 622.412 511.313C622.632 511.415 622.803 511.598 622.891 511.824C622.98 512.05 622.978 512.301 622.886 512.525C622.794 512.749 622.619 512.929 622.398 513.028C622.177 513.127 621.926 513.137 621.697 513.056C565.444 500.536 507.847 548.729 459.254 574.855C459.038 575.006 458.771 575.066 458.511 575.02C458.251 574.975 458.02 574.828 457.868 574.612C457.717 574.396 457.657 574.128 457.702 573.868C457.748 573.608 457.895 573.377 458.111 573.225Z" fill="#231F20"/>
</g>
<rect y="-133" width="1600" height="1093" fill="url(#paint0_linear_1_572)"/>
</g>
<defs>
<linearGradient id="paint0_linear_1_572" x1="1123" y1="435.702" x2="1128.57" y2="-133.004" gradientUnits="userSpaceOnUse">
<stop stop-color="white"/>
<stop offset="0.156524" stop-color="white"/>
<stop offset="0.369941" stop-color="white" stop-opacity="0"/>
</linearGradient>
<clipPath id="clip0_1_572">
<rect width="1600" height="960" fill="white"/>
</clipPath>
</defs>
</svg>
